<svg xmlns="http://www.w3.org/2000/svg" viewBox="0 0 512 512" role="img" aria-label="QuizMaster"><defs><linearGradient id="g" x1="80" x2="430" y1="60" y2="452" gradientUnits="userSpaceOnUse"><stop stop-color="#ffd166"/><stop offset=".48" stop-color="#ff7a3d"/><stop offset="1" stop-color="#7c3aed"/></linearGradient></defs><rect width="512" height="512" rx="118" fill="#111827"/><circle cx="380" cy="120" r="96" fill="#38bdf8" opacity=".18"/><circle cx="112" cy="396" r="130" fill="#ff3d81" opacity=".16"/><path d="M256 86c-80 0-142 48-142 119 0 37 16 68 45 90 14 11 26 27 31 44l5 18h122l5-18c5-18 16-32 31-44 29-23 45-54 45-90 0-71-62-119-142-119Z" fill="url(#g)"/><path d="M205 378h102v36H205zm14 58h74v30h-74z" fill="#fff7ed" opacity=".92"/><text x="256" y="262" text-anchor="middle" font-family="Inter,Arial,sans-serif" font-size="168" font-weight="900" fill="#210913">?</text></svg>
